<svg xmlns="http://www.w3.org/2000/svg" xmlns:xlink="http://www.w3.org/1999/xlink" width="200" zoomAndPan="magnify" viewBox="0 0 150 56.249996" height="75" preserveAspectRatio="xMidYMid meet" version="1.0"><defs><g/><clipPath id="41d5d04675"><path d="M 0.988281 4 L 131 4 L 131 55.511719 L 0.988281 55.511719 Z M 0.988281 4 " clip-rule="nonzero"/></clipPath></defs><g fill="#ffffff" fill-opacity="1"><g transform="translate(2.198973, 28.336324)"><g><path d="M 5.125 0.078125 C 2.851562 0.078125 1.71875 -0.171875 1.71875 -0.671875 L 1.71875 -24.90625 C 1.71875 -25.75 2.101562 -26.171875 2.875 -26.171875 L 9.453125 -26.171875 C 13.148438 -26.171875 15.8125 -25.410156 17.4375 -23.890625 C 19.070312 -22.367188 19.890625 -20.164062 19.890625 -17.28125 C 19.890625 -14.882812 19.117188 -12.6875 17.578125 -10.6875 C 16.804688 -9.695312 15.671875 -8.898438 14.171875 -8.296875 C 12.671875 -7.703125 10.925781 -7.40625 8.9375 -7.40625 L 8.9375 -0.703125 C 8.9375 -0.410156 8.46875 -0.207031 7.53125 -0.09375 C 6.59375 0.0195312 5.789062 0.078125 5.125 0.078125 Z M 8.9375 -19.671875 L 8.9375 -13.765625 L 9.421875 -13.765625 C 10.296875 -13.765625 11.03125 -14.035156 11.625 -14.578125 C 12.226562 -15.128906 12.53125 -15.898438 12.53125 -16.890625 C 12.53125 -17.890625 12.320312 -18.601562 11.90625 -19.03125 C 11.5 -19.457031 10.769531 -19.671875 9.71875 -19.671875 Z M 8.9375 -19.671875 "/></g></g></g><g fill="#ffffff" fill-opacity="1"><g transform="translate(21.566629, 28.336324)"><g><path d="M 1.5 -2.203125 L 1.5 -25.46875 C 1.5 -25.988281 2.765625 -26.25 5.296875 -26.25 C 7.828125 -26.25 9.09375 -25.988281 9.09375 -25.46875 L 9.09375 -7.140625 L 14.84375 -7.140625 C 15.289062 -7.140625 15.601562 -6.554688 15.78125 -5.390625 C 15.851562 -4.816406 15.890625 -4.226562 15.890625 -3.625 C 15.890625 -3.03125 15.851562 -2.421875 15.78125 -1.796875 C 15.582031 -0.597656 15.257812 0 14.8125 0 L 3.296875 0 C 2.742188 0 2.304688 -0.222656 1.984375 -0.671875 C 1.660156 -1.117188 1.5 -1.628906 1.5 -2.203125 Z M 1.5 -2.203125 "/></g></g></g><g fill="#ffffff" fill-opacity="1"><g transform="translate(35.886672, 28.336324)"><g><path d="M 14.09375 -25.421875 C 14.09375 -25.921875 15.441406 -26.171875 18.140625 -26.171875 C 20.847656 -26.171875 22.203125 -25.921875 22.203125 -25.421875 L 22.203125 -8.265625 C 22.203125 -5.722656 21.289062 -3.644531 19.46875 -2.03125 C 17.65625 -0.425781 15.144531 0.375 11.9375 0.375 C 8.738281 0.375 6.132812 -0.453125 4.125 -2.109375 C 2.125 -3.765625 1.125 -6.003906 1.125 -8.828125 L 1.125 -25.390625 C 1.125 -25.890625 2.472656 -26.140625 5.171875 -26.140625 C 7.878906 -26.140625 9.234375 -25.890625 9.234375 -25.390625 L 9.234375 -8.53125 C 9.234375 -8.03125 9.492188 -7.628906 10.015625 -7.328125 C 10.566406 -7.023438 11.140625 -6.875 11.734375 -6.875 C 12.335938 -6.875 12.878906 -7.007812 13.359375 -7.28125 C 13.847656 -7.5625 14.09375 -7.976562 14.09375 -8.53125 Z M 14.09375 -25.421875 "/></g></g></g><g fill="#ffffff" fill-opacity="1"><g transform="translate(57.422933, 28.336324)"><g><path d="M 28.046875 0.03125 C 25.828125 0.03125 24.71875 -0.210938 24.71875 -0.703125 L 23.9375 -15.703125 L 19.375 -0.53125 C 19.269531 -0.226562 18.421875 -0.078125 16.828125 -0.078125 C 15.234375 -0.078125 14.410156 -0.210938 14.359375 -0.484375 L 9.640625 -15.859375 L 9.125 -0.9375 C 9.101562 -0.5625 8.628906 -0.304688 7.703125 -0.171875 C 6.773438 -0.0351562 6.003906 0.03125 5.390625 0.03125 C 4.785156 0.03125 4.195312 -0.00390625 3.625 -0.078125 C 2.425781 -0.253906 1.84375 -0.566406 1.875 -1.015625 L 2.734375 -25.3125 C 2.734375 -25.90625 4.253906 -26.203125 7.296875 -26.203125 C 8.191406 -26.203125 9.285156 -26.132812 10.578125 -26 C 11.878906 -25.863281 12.601562 -25.597656 12.75 -25.203125 L 16.9375 -13.421875 L 20.609375 -25.234375 C 20.828125 -25.878906 22.546875 -26.203125 25.765625 -26.203125 C 26.679688 -26.203125 27.78125 -26.132812 29.0625 -26 C 30.351562 -25.863281 31 -25.625 31 -25.28125 L 32.078125 -0.75 C 32.078125 -0.476562 31.59375 -0.28125 30.625 -0.15625 C 29.65625 -0.03125 28.796875 0.03125 28.046875 0.03125 Z M 28.046875 0.03125 "/></g></g></g><g fill="#ffffff" fill-opacity="1"><g transform="translate(89.390921, 28.336324)"><g><path d="M 20.234375 -19.40625 C 20.234375 -16.8125 19.109375 -14.84375 16.859375 -13.5 C 18.085938 -13.050781 19.109375 -12.273438 19.921875 -11.171875 C 20.742188 -10.078125 21.15625 -8.523438 21.15625 -6.515625 C 21.15625 -4.515625 20.414062 -2.925781 18.9375 -1.75 C 17.457031 -0.582031 15.332031 0 12.5625 0 L 3.734375 0 C 3.316406 0 2.96875 -0.140625 2.6875 -0.421875 C 2.414062 -0.710938 2.28125 -1.097656 2.28125 -1.578125 L 2.28125 -25.5 C 2.28125 -25.769531 2.320312 -25.945312 2.40625 -26.03125 C 2.5 -26.125 2.679688 -26.171875 2.953125 -26.171875 L 11.484375 -26.171875 C 17.316406 -26.171875 20.234375 -23.914062 20.234375 -19.40625 Z M 9.453125 -20.109375 L 9.453125 -15.21875 L 9.640625 -15.21875 C 12.035156 -15.21875 13.234375 -16.015625 13.234375 -17.609375 C 13.234375 -18.484375 13.003906 -19.117188 12.546875 -19.515625 C 12.085938 -19.910156 11.320312 -20.109375 10.25 -20.109375 Z M 9.453125 -10.8125 L 9.453125 -5.9375 L 10.140625 -5.9375 C 11.203125 -5.9375 11.984375 -6.132812 12.484375 -6.53125 C 12.984375 -6.9375 13.234375 -7.578125 13.234375 -8.453125 C 13.234375 -9.328125 13.003906 -9.9375 12.546875 -10.28125 C 12.085938 -10.632812 11.320312 -10.8125 10.25 -10.8125 Z M 9.453125 -10.8125 "/></g></g></g><g fill="#ffffff" fill-opacity="1"><g transform="translate(109.655933, 28.336324)"><g><path d="M 14.015625 -15.78125 C 14.492188 -15.78125 14.734375 -14.90625 14.734375 -13.15625 C 14.734375 -12.632812 14.675781 -12.019531 14.5625 -11.3125 C 14.445312 -10.601562 14.242188 -10.25 13.953125 -10.25 L 9.203125 -10.25 L 9.203125 -6.5 L 16.078125 -6.5 C 16.503906 -6.5 16.789062 -5.953125 16.9375 -4.859375 C 17.007812 -4.390625 17.046875 -3.882812 17.046875 -3.34375 C 17.046875 -2.8125 16.96875 -2.117188 16.8125 -1.265625 C 16.664062 -0.421875 16.421875 0 16.078125 0 L 3.296875 0 C 2.347656 0 1.875 -0.382812 1.875 -1.15625 L 1.875 -25.203125 C 1.875 -25.847656 2.160156 -26.171875 2.734375 -26.171875 L 16.109375 -26.171875 C 16.640625 -26.171875 16.90625 -25.066406 16.90625 -22.859375 C 16.90625 -20.660156 16.640625 -19.5625 16.109375 -19.5625 L 9.203125 -19.5625 L 9.203125 -15.78125 Z M 14.015625 -15.78125 "/></g></g></g><g fill="#ffffff" fill-opacity="1"><g transform="translate(126.144584, 28.336324)"><g><path d="M 9.015625 -0.53125 C 9.015625 -0.125 7.828125 0.078125 5.453125 0.078125 C 3.066406 0.078125 1.875 -0.109375 1.875 -0.484375 L 1.875 -24.859375 C 1.875 -25.734375 2.332031 -26.171875 3.25 -26.171875 L 10.390625 -26.171875 C 16.953125 -26.171875 20.234375 -23.617188 20.234375 -18.515625 C 20.234375 -16.960938 19.929688 -15.554688 19.328125 -14.296875 C 18.734375 -13.035156 17.882812 -12.035156 16.78125 -11.296875 L 21.5 -3.4375 C 21.300781 -2.84375 20.65625 -2.160156 19.5625 -1.390625 C 18.0625 -0.316406 16.820312 0.21875 15.84375 0.21875 C 14.875 0.21875 14.15625 -0.128906 13.6875 -0.828125 L 10.171875 -9.015625 L 9.015625 -9.015625 Z M 9.015625 -19.5625 L 9.015625 -13.953125 L 9.203125 -13.953125 C 11.566406 -13.953125 12.75 -14.9375 12.75 -16.90625 C 12.75 -17.800781 12.515625 -18.46875 12.046875 -18.90625 C 11.585938 -19.34375 10.835938 -19.5625 9.796875 -19.5625 Z M 9.015625 -19.5625 "/></g></g></g><g clip-path="url(#41d5d04675)"><path stroke-linecap="butt" transform="matrix(0.356975, 0, 0, 0.356975, 0.509311, 7.279421)" fill="none" stroke-linejoin="miter" d="M 60.563387 126.403707 C 60.563387 126.961782 57.094566 127.235349 50.145982 127.235349 C 43.219282 127.235349 39.750461 126.874241 39.750461 126.141083 L 39.750461 90.752544 C 39.750461 86.714705 38.415458 84.690314 35.74545 84.690314 C 34.377619 84.690314 32.561138 85.587612 30.285067 87.360322 L 30.285067 126.261453 C 30.285067 127.071209 26.805303 127.476087 19.867661 127.476087 C 12.930019 127.476087 9.472141 127.027438 9.472141 126.141083 L 9.472141 86.386426 L 6.441026 86.386426 C 3.771019 86.386426 2.436015 83.585107 2.436015 77.982468 C 2.436015 75.465658 2.917492 72.91602 3.891388 70.322611 C 5.193564 66.755306 7.305496 64.982597 10.216241 64.982597 C 13.13793 64.982597 15.961134 65.748582 18.674912 67.291496 C 21.38869 68.83441 23.030088 70.289783 23.599106 71.657615 C 28.632726 67.203955 34.202536 64.982597 40.319479 64.982597 C 46.436422 64.982597 51.349673 66.886618 55.070175 70.705604 C 59.469122 66.886618 64.74348 64.982597 70.904194 64.982597 C 84.276116 64.982597 90.973019 73.12393 90.973019 89.41754 L 90.973019 126.403707 C 90.973019 126.961782 87.493256 127.235349 80.544671 127.235349 C 73.617972 127.235349 70.160094 126.874241 70.160094 126.141083 L 70.160094 90.752544 C 70.160094 86.714705 68.82509 84.690314 66.14414 84.690314 C 64.688767 84.690314 62.828516 85.587612 60.563387 87.360322 Z M 106.270848 82.851949 C 104.016661 78.792225 102.889568 75.487543 102.889568 72.937905 C 102.889568 70.377325 103.578955 68.735927 104.935844 68.002769 C 109.575529 65.989321 115.911325 64.982597 123.97606 64.982597 C 132.051738 64.982597 137.741918 66.864733 141.068484 70.650891 C 144.39505 74.404221 146.058334 79.984974 146.058334 87.360322 L 146.058334 106.57562 L 150.183714 106.57562 C 151.573431 106.57562 152.645811 107.385376 153.389911 109.004889 C 154.166839 110.635344 154.549832 112.856703 154.549832 115.69085 C 154.549832 118.514054 153.83856 121.315374 152.416015 124.094807 C 151.004413 126.841413 149.089449 128.220187 146.649237 128.220187 C 142.283118 128.220187 138.759584 127.038381 136.089577 124.685711 C 134.853057 123.711814 133.922932 122.540951 133.288258 121.151234 C 129.556813 125.856574 123.757207 128.220187 115.900382 128.220187 C 109.980407 128.220187 104.990558 126.108255 100.930833 121.895334 C 96.871109 117.682413 94.846718 112.692563 94.846718 106.925785 C 94.846718 93.728946 102.747314 87.130526 118.57039 87.130526 L 125.245408 87.130526 L 125.245408 85.904949 C 125.245408 83.793017 124.906186 82.436128 124.205856 81.845225 C 123.538354 81.232436 121.940727 80.926042 119.423917 80.926042 C 116.338089 80.926042 111.961027 81.560716 106.270848 82.851949 Z M 116.009809 105.240616 C 116.009809 107.013326 116.502228 108.370215 117.465182 109.300341 C 118.439078 110.230466 119.675598 110.701 121.174741 110.701 C 122.684827 110.701 124.041716 110.099154 125.245408 108.88452 L 125.245408 99.506666 L 121.864128 99.506666 C 117.968544 99.506666 116.009809 101.421631 116.009809 105.240616 Z M 186.775945 126.261453 C 186.775945 127.246291 183.37278 127.738711 176.56645 127.738711 C 168.468887 127.410431 164.420105 126.874241 164.420105 126.141083 L 164.420105 83.092687 L 158.215621 83.092687 C 156.596108 83.092687 155.786352 80.302311 155.786352 74.710615 C 155.786352 73.255242 155.917664 71.47159 156.202173 69.3706 C 156.497624 67.258668 157.088528 66.197231 157.985825 66.197231 L 164.420105 66.197231 L 164.420105 55.506259 C 164.420105 53.886747 167.845155 53.07699 174.695256 53.07699 C 181.545357 53.07699 184.970407 53.711664 184.970407 55.002897 L 184.970407 62.783123 L 185.090776 66.197231 L 195.420641 66.197231 C 196.810358 66.197231 197.499745 69.031378 197.499745 74.710615 C 197.499745 80.378909 196.810358 83.202114 195.420641 83.202114 L 186.775945 83.202114 Z M 246.883937 123.700872 C 241.773718 126.710101 235.197184 128.220187 227.165277 128.220187 C 219.144312 128.220187 212.381753 125.484524 206.855713 120.02414 C 201.329673 114.541871 198.572125 106.958613 198.572125 97.285308 C 198.572125 87.579175 201.220247 79.777063 206.527433 73.857088 C 211.856505 67.937113 218.564351 64.982597 226.661914 64.982597 C 234.77042 64.982597 241.04056 67.050758 245.450449 71.187081 C 249.882224 75.323404 252.103582 80.346081 252.103582 86.266056 C 252.103582 99.386297 244.564095 105.951889 229.485119 105.951889 L 221.081162 105.951889 C 221.081162 108.381158 221.737721 110.066326 223.072724 110.996452 C 224.418671 111.926577 226.388348 112.397111 228.970814 112.397111 C 234.660994 112.397111 240.044779 111.094936 245.154998 108.501527 C 245.231596 108.424928 245.603647 108.993946 246.260206 110.230466 C 248.197055 113.71023 249.160009 116.642861 249.160009 119.039302 C 249.160009 121.435743 248.404966 122.989599 246.883937 123.700872 Z M 231.673649 88.585899 C 231.673649 85.171791 230.010366 83.47568 226.694742 83.47568 C 225.140886 83.47568 223.816825 83.935271 222.711617 84.865397 C 221.617352 85.795522 221.081162 87.152411 221.081162 88.936064 L 221.081162 92.711279 L 227.635811 92.711279 C 230.327703 92.711279 231.673649 91.332505 231.673649 88.585899 Z M 259.872866 105.120247 C 266.438458 109.081488 271.636218 111.051165 275.455204 111.051165 C 277.895415 111.051165 279.11005 110.208581 279.11005 108.501527 C 279.11005 107.297835 276.998118 105.722093 272.785196 103.785244 C 262.6523 99.648921 257.585851 92.875419 257.585851 83.47568 C 257.585851 77.479106 259.774382 72.894135 264.1405 69.731708 C 268.517562 66.558339 273.759092 64.982597 279.876035 64.982597 C 285.992978 64.982597 291.179796 65.628213 295.436488 66.941332 C 299.69318 68.221622 301.816054 69.928676 301.816054 72.040608 C 301.816054 73.82426 300.951585 76.176931 299.211703 79.109561 C 297.471821 82.020307 296.279072 83.596049 295.644398 83.825845 C 292.142749 81.888995 288.367534 80.926042 284.329695 80.926042 C 282.141164 80.926042 281.035956 81.681085 281.035956 83.202114 C 281.035956 84.197895 281.46272 85.040479 282.316247 85.729866 C 283.169774 86.408311 284.72363 87.250895 286.977817 88.279505 C 289.253889 89.297171 291.146968 90.205411 292.646111 91.015168 C 294.156197 91.824924 295.830423 92.952017 297.690674 94.396448 C 301.597201 97.493218 303.544993 101.509172 303.544993 106.455251 C 303.544993 112.922359 301.400233 118.174832 297.099771 122.190786 C 292.810251 126.206739 286.310315 128.220187 277.621849 128.220187 C 271.887899 128.220187 266.657311 127.246291 261.95197 125.309442 C 257.235687 123.350707 254.883016 120.669757 254.883016 117.266592 C 254.883016 115.001463 255.430149 112.615964 256.513471 110.110097 C 257.618679 107.593287 258.745773 105.930004 259.872866 105.120247 Z M 259.872866 105.120247 " stroke="#001b34" stroke-width="10.94508" stroke-opacity="1" stroke-miterlimit="4"/></g><g fill="#ffd900" fill-opacity="1"><g transform="translate(0.509311, 52.615205)"><g><path d="M 21.609375 -0.21875 C 21.609375 -0.0078125 20.367188 0.09375 17.890625 0.09375 C 15.421875 0.09375 14.1875 -0.0351562 14.1875 -0.296875 L 14.1875 -12.9375 C 14.1875 -14.382812 13.710938 -15.109375 12.765625 -15.109375 C 12.273438 -15.109375 11.625 -14.789062 10.8125 -14.15625 L 10.8125 -0.265625 C 10.8125 0.0234375 9.570312 0.171875 7.09375 0.171875 C 4.625 0.171875 3.390625 0.015625 3.390625 -0.296875 L 3.390625 -14.5 L 2.296875 -14.5 C 1.347656 -14.5 0.875 -15.5 0.875 -17.5 C 0.875 -18.394531 1.046875 -19.304688 1.390625 -20.234375 C 1.847656 -21.503906 2.597656 -22.140625 3.640625 -22.140625 C 4.679688 -22.140625 5.6875 -21.863281 6.65625 -21.3125 C 7.625 -20.757812 8.210938 -20.238281 8.421875 -19.75 C 10.210938 -21.34375 12.203125 -22.140625 14.390625 -22.140625 C 16.578125 -22.140625 18.332031 -21.457031 19.65625 -20.09375 C 21.21875 -21.457031 23.101562 -22.140625 25.3125 -22.140625 C 30.082031 -22.140625 32.46875 -19.226562 32.46875 -13.40625 L 32.46875 -0.21875 C 32.46875 -0.0078125 31.226562 0.09375 28.75 0.09375 C 26.28125 0.09375 25.046875 -0.0351562 25.046875 -0.296875 L 25.046875 -12.9375 C 25.046875 -14.382812 24.566406 -15.109375 23.609375 -15.109375 C 23.085938 -15.109375 22.421875 -14.789062 21.609375 -14.15625 Z M 21.609375 -0.21875 "/></g></g></g><g fill="#ffd900" fill-opacity="1"><g transform="translate(33.762497, 52.615205)"><g><path d="M 4.6875 -15.75 C 3.875 -17.195312 3.46875 -18.375 3.46875 -19.28125 C 3.46875 -20.195312 3.710938 -20.785156 4.203125 -21.046875 C 5.859375 -21.773438 8.125 -22.140625 11 -22.140625 C 13.882812 -22.140625 15.914062 -21.460938 17.09375 -20.109375 C 18.28125 -18.765625 18.875 -16.78125 18.875 -14.15625 L 18.875 -7.296875 L 20.359375 -7.296875 C 20.847656 -7.296875 21.226562 -7.003906 21.5 -6.421875 C 21.78125 -5.847656 21.921875 -5.050781 21.921875 -4.03125 C 21.921875 -3.019531 21.664062 -2.019531 21.15625 -1.03125 C 20.65625 -0.0507812 19.96875 0.4375 19.09375 0.4375 C 17.53125 0.4375 16.273438 0.015625 15.328125 -0.828125 C 14.890625 -1.171875 14.554688 -1.585938 14.328125 -2.078125 C 12.992188 -0.398438 10.921875 0.4375 8.109375 0.4375 C 6.003906 0.4375 4.226562 -0.3125 2.78125 -1.8125 C 1.332031 -3.320312 0.609375 -5.101562 0.609375 -7.15625 C 0.609375 -11.875 3.429688 -14.234375 9.078125 -14.234375 L 11.453125 -14.234375 L 11.453125 -14.671875 C 11.453125 -15.421875 11.328125 -15.90625 11.078125 -16.125 C 10.835938 -16.34375 10.269531 -16.453125 9.375 -16.453125 C 8.269531 -16.453125 6.707031 -16.21875 4.6875 -15.75 Z M 8.15625 -7.765625 C 8.15625 -7.128906 8.328125 -6.644531 8.671875 -6.3125 C 9.023438 -5.976562 9.46875 -5.8125 10 -5.8125 C 10.539062 -5.8125 11.023438 -6.03125 11.453125 -6.46875 L 11.453125 -9.8125 L 10.25 -9.8125 C 8.851562 -9.8125 8.15625 -9.128906 8.15625 -7.765625 Z M 8.15625 -7.765625 "/></g></g></g><g fill="#ffd900" fill-opacity="1"><g transform="translate(55.251168, 52.615205)"><g><path d="M 11.9375 -0.265625 C 11.9375 0.0859375 10.722656 0.265625 8.296875 0.265625 C 5.398438 0.148438 3.953125 -0.0351562 3.953125 -0.296875 L 3.953125 -15.671875 L 1.734375 -15.671875 C 1.160156 -15.671875 0.875 -16.671875 0.875 -18.671875 C 0.875 -19.191406 0.921875 -19.828125 1.015625 -20.578125 C 1.117188 -21.328125 1.332031 -21.703125 1.65625 -21.703125 L 3.953125 -21.703125 L 3.953125 -25.515625 C 3.953125 -26.097656 5.171875 -26.390625 7.609375 -26.390625 C 10.054688 -26.390625 11.28125 -26.160156 11.28125 -25.703125 L 11.28125 -22.921875 L 11.328125 -21.703125 L 15.015625 -21.703125 C 15.503906 -21.703125 15.75 -20.6875 15.75 -18.65625 C 15.75 -16.632812 15.503906 -15.625 15.015625 -15.625 L 11.9375 -15.625 Z M 11.9375 -0.265625 "/></g></g></g><g fill="#ffd900" fill-opacity="1"><g transform="translate(70.271524, 52.615205)"><g><path d="M 18.359375 -1.171875 C 16.535156 -0.0976562 14.191406 0.4375 11.328125 0.4375 C 8.460938 0.4375 6.046875 -0.535156 4.078125 -2.484375 C 2.109375 -4.441406 1.125 -7.148438 1.125 -10.609375 C 1.125 -14.066406 2.070312 -16.851562 3.96875 -18.96875 C 5.863281 -21.082031 8.257812 -22.140625 11.15625 -22.140625 C 14.050781 -22.140625 16.285156 -21.398438 17.859375 -19.921875 C 19.441406 -18.441406 20.234375 -16.648438 20.234375 -14.546875 C 20.234375 -9.859375 17.539062 -7.515625 12.15625 -7.515625 L 9.15625 -7.515625 C 9.15625 -6.640625 9.394531 -6.035156 9.875 -5.703125 C 10.351562 -5.367188 11.054688 -5.203125 11.984375 -5.203125 C 14.003906 -5.203125 15.925781 -5.664062 17.75 -6.59375 C 17.78125 -6.625 17.910156 -6.421875 18.140625 -5.984375 C 18.835938 -4.742188 19.1875 -3.695312 19.1875 -2.84375 C 19.1875 -1.988281 18.910156 -1.429688 18.359375 -1.171875 Z M 12.9375 -13.71875 C 12.9375 -14.9375 12.34375 -15.546875 11.15625 -15.546875 C 10.601562 -15.546875 10.128906 -15.378906 9.734375 -15.046875 C 9.347656 -14.710938 9.15625 -14.226562 9.15625 -13.59375 L 9.15625 -12.234375 L 11.5 -12.234375 C 12.457031 -12.234375 12.9375 -12.726562 12.9375 -13.71875 Z M 12.9375 -13.71875 "/></g></g></g><g fill="#ffd900" fill-opacity="1"><g transform="translate(90.414437, 52.615205)"><g><path d="M 2.859375 -7.8125 C 5.203125 -6.394531 7.054688 -5.6875 8.421875 -5.6875 C 9.285156 -5.6875 9.71875 -5.988281 9.71875 -6.59375 C 9.71875 -7.03125 8.96875 -7.597656 7.46875 -8.296875 C 3.851562 -9.765625 2.046875 -12.179688 2.046875 -15.546875 C 2.046875 -17.679688 2.828125 -19.3125 4.390625 -20.4375 C 5.953125 -21.570312 7.820312 -22.140625 10 -22.140625 C 12.1875 -22.140625 14.039062 -21.90625 15.5625 -21.4375 C 17.082031 -20.976562 17.84375 -20.375 17.84375 -19.625 C 17.84375 -18.988281 17.53125 -18.148438 16.90625 -17.109375 C 16.28125 -16.066406 15.851562 -15.5 15.625 -15.40625 C 14.382812 -16.101562 13.039062 -16.453125 11.59375 -16.453125 C 10.8125 -16.453125 10.421875 -16.175781 10.421875 -15.625 C 10.421875 -15.28125 10.570312 -14.984375 10.875 -14.734375 C 11.175781 -14.492188 11.734375 -14.191406 12.546875 -13.828125 C 13.359375 -13.460938 14.03125 -13.132812 14.5625 -12.84375 C 15.09375 -12.5625 15.691406 -12.160156 16.359375 -11.640625 C 17.753906 -10.535156 18.453125 -9.097656 18.453125 -7.328125 C 18.453125 -5.015625 17.679688 -3.140625 16.140625 -1.703125 C 14.609375 -0.273438 12.296875 0.4375 9.203125 0.4375 C 7.148438 0.4375 5.28125 0.0859375 3.59375 -0.609375 C 1.914062 -1.304688 1.078125 -2.257812 1.078125 -3.46875 C 1.078125 -4.28125 1.269531 -5.132812 1.65625 -6.03125 C 2.050781 -6.925781 2.453125 -7.519531 2.859375 -7.8125 Z M 2.859375 -7.8125 "/></g></g></g></svg>